{
  "accessors": [
    {
      "bufferView": 0,
      "componentType": 5123,
      "count": 36,
      "max": [
        23
      ],
      "min": [
        0
      ],
      "type": "SCALAR"
    },
    {
      "bufferView": 1,
      "componentType": 5126,
      "count": 24,
      "max": [
        1.0000004768371582,
        4,
        1.0000005960464478
      ],
      "min": [
        -1.0000003576278687,
        0,
        -1.0000003576278687
      ],
      "type": "VEC3"
    },
    {
      "bufferView": 2,
      "componentType": 5126,
      "count": 24,
      "max": [
        1,
        0.7071067690849304,
        1
      ],
      "min": [
        -1,
        -1,
        -1
      ],
      "type": "VEC3"
    },
    {
      "bufferView": 3,
      "componentType": 5123,
      "count": 36,
      "max": [
        23
      ],
      "min": [
        0
      ],
      "type": "SCALAR"
    },
    {
      "bufferView": 4,
      "componentType": 5126,
      "count": 24,
      "max": [
        1.0000004768371582,
        2,
        1.0000005960464478
      ],
      "min": [
        -1.0000003576278687,
        0,
        -1.0000003576278687
      ],
      "type": "VEC3"
    },
    {
      "bufferView": 5,
      "componentType": 5126,
      "count": 24,
      "max": [
        1,
        1,
        1
      ],
      "min": [
        -1,
        -1,
        -1
      ],
      "type": "VEC3"
    },
    {
      "bufferView": 6,
      "componentType": 5126,
      "count": 24,
      "max": [
        0,
        2,
        0
      ],
      "min": [
        0,
        0,
        0
      ],
      "type": "VEC3"
    },
    {
      "bufferView": 7,
      "componentType": 5126,
      "count": 24,
      "max": [
        0.7071067690849304,
        6.70552182668871e-8,
        2.739544981977815e-7
      ],
      "min": [
        -3.476941401459044e-8,
        -0.2928932309150696,
        -5.960464477539063e-8
      ],
      "type": "VEC3"
    },
    {
      "bufferView": 8,
      "componentType": 5126,
      "count": 5,
      "max": [
        1.6666666666666667
      ],
      "min": [
        0
      ],
      "type": "SCALAR"
    },
    {
      "bufferView": 9,
      "componentType": 5126,
      "count": 15,
      "max": [
        1
      ],
      "min": [
        0
      ],
      "type": "SCALAR"
    }
  ],
  "animations": [
    {
      "channels": [
        {
          "sampler": 0,
          "target": {
            "node": 0,
            "path": "weights"
          }
        }
      ],
      "name": "actionMorphing",
      "samplers": [
        {
          "input": 8,
          "interpolation": "CUBICSPLINE",
          "output": 9
        }
      ]
    }
  ],
  "asset": {
    "generator": "Khronos Blender glTF 2.0 exporter",
    "version": "2.0"
  },
  "bufferViews": [
    {
      "buffer": 0,
      "byteLength": 72,
      "byteOffset": 0,
      "target": 34963
    },
    {
      "buffer": 0,
      "byteLength": 288,
      "byteOffset": 72,
      "target": 34962
    },
    {
      "buffer": 0,
      "byteLength": 288,
      "byteOffset": 360,
      "target": 34962
    },
    {
      "buffer": 0,
      "byteLength": 72,
      "byteOffset": 648,
      "target": 34963
    },
    {
      "buffer": 0,
      "byteLength": 288,
      "byteOffset": 720,
      "target": 34962
    },
    {
      "buffer": 0,
      "byteLength": 288,
      "byteOffset": 1008,
      "target": 34962
    },
    {
      "buffer": 0,
      "byteLength": 288,
      "byteOffset": 1296
    },
    {
      "buffer": 0,
      "byteLength": 288,
      "byteOffset": 1584
    },
    {
      "buffer": 0,
      "byteLength": 20,
      "byteOffset": 1872
    },
    {
      "buffer": 0,
      "byteLength": 60,
      "byteOffset": 1892
    }
  ],
  "buffers": [
    {
      "uri": "mopher02_data.bin",
      "byteLength": 1952
    }
  ],
  "meshes": [
    {
      "name": "cube_orig_mesh",
      "primitives": [
        {
          "attributes": {
            "NORMAL": 2,
            "POSITION": 1
          },
          "indices": 0
        }
      ]
    },
    {
      "extras": {
        "targetNames": [
          "KeyStretching"
        ]
      },
      "name": "cube_morph_mesh",
      "primitives": [
        {
          "attributes": {
            "NORMAL": 5,
            "POSITION": 4
          },
          "indices": 3,
          "targets": [
            {
              "NORMAL": 7,
              "POSITION": 6
            }
          ]
        }
      ],
      "weights": [
        0
      ]
    }
  ],
  "nodes": [
    {
      "mesh": 1,
      "name": "cube_morph",
      "translation": [
        4,
        0,
        0
      ]
    },
    {
      "mesh": 0,
      "name": "cube_orig"
    }
  ],
  "scene": 0,
  "scenes": [
    {
      "name": "Scene",
      "nodes": [
        1,
        0
      ]
    }
  ]
}